<svg width="25" height="19" viewBox="0 0 25 19" fill="none" xmlns="http://www.w3.org/2000/svg">
<path d="M8.75 11.875C5.825 11.875 0 13.4629 0 16.625V19H17.5V16.625C17.5 13.4629 11.675 11.875 8.75 11.875ZM2.925 16.2857C3.975 15.4986 6.5125 14.5893 8.75 14.5893C10.9875 14.5893 13.525 15.4986 14.575 16.2857H2.925ZM8.75 9.5C11.1625 9.5 13.125 7.36929 13.125 4.75C13.125 2.13071 11.1625 0 8.75 0C6.3375 0 4.375 2.13071 4.375 4.75C4.375 7.36929 6.3375 9.5 8.75 9.5ZM8.75 2.71429C9.7875 2.71429 10.625 3.62357 10.625 4.75C10.625 5.87643 9.7875 6.78571 8.75 6.78571C7.7125 6.78571 6.875 5.87643 6.875 4.75C6.875 3.62357 7.7125 2.71429 8.75 2.71429ZM17.55 11.9564C19 13.0964 20 14.6164 20 16.625V19H25V16.625C25 13.8836 20.625 12.3229 17.55 11.9564ZM16.25 9.5C18.6625 9.5 20.625 7.36929 20.625 4.75C20.625 2.13071 18.6625 0 16.25 0C15.575 0 14.95 0.176428 14.375 0.475C15.1625 1.68286 15.625 3.16214 15.625 4.75C15.625 6.33786 15.1625 7.81714 14.375 9.025C14.95 9.32357 15.575 9.5 16.25 9.5Z" fill="white"/>
</svg>
