<svg width="24" height="28" viewBox="0 0 24 28" fill="none" xmlns="http://www.w3.org/2000/svg">
<g filter="url(#filter0_d_2023_27)">
<path d="M17.7568 12C18.0523 12 18.3449 12.0582 18.6179 12.1713C18.8908 12.2843 19.1389 12.4501 19.3478 12.659C19.5567 12.8679 19.7225 13.116 19.8355 13.389C19.9486 13.6619 20.0068 13.9545 20.0068 14.25V15.154C20.007 15.6946 19.8902 16.2287 19.6646 16.72C19.439 17.2112 19.1099 17.6478 18.6998 18C17.1348 19.344 14.8938 20 12.0038 20C9.11381 20 6.87581 19.344 5.31381 18C4.90427 17.6481 4.57557 17.2119 4.35016 16.7212C4.12476 16.2305 4.00798 15.697 4.00781 15.157V14.249C4.00808 13.6524 4.24525 13.0804 4.66718 12.6587C5.0891 12.2369 5.66125 12 6.25781 12H17.7568ZM12.0038 0C12.185 7.6429e-06 12.3602 0.0656426 12.4967 0.184767C12.6333 0.303891 12.7222 0.468446 12.7468 0.648L12.7538 0.75L12.7528 1.499H16.2528C16.8496 1.499 17.4218 1.73605 17.8438 2.15801C18.2658 2.57997 18.5028 3.15226 18.5028 3.749V8.254C18.5028 8.85074 18.2658 9.42303 17.8438 9.84499C17.4218 10.2669 16.8496 10.504 16.2528 10.504H7.75281C7.15608 10.504 6.58378 10.2669 6.16182 9.84499C5.73987 9.42303 5.50281 8.85074 5.50281 8.254V3.75C5.50281 3.45444 5.56104 3.16178 5.67418 2.88873C5.78731 2.61568 5.95314 2.3676 6.16218 2.15866C6.37121 1.94971 6.61937 1.784 6.89247 1.67098C7.16557 1.55797 7.45825 1.49987 7.75381 1.5L11.2538 1.499V0.75C11.2539 0.568612 11.3196 0.393385 11.439 0.256774C11.5583 0.120164 11.7231 0.0314269 11.9028 0.00699997L12.0038 0ZM9.75281 4.5C9.58459 4.49327 9.41673 4.52059 9.25933 4.58032C9.10192 4.64005 8.9582 4.73097 8.83679 4.84762C8.71539 4.96426 8.6188 5.10423 8.55281 5.25912C8.48683 5.41401 8.45282 5.58064 8.45282 5.749C8.45282 5.91736 8.48683 6.08399 8.55281 6.23888C8.6188 6.39377 8.71539 6.53374 8.83679 6.65038C8.9582 6.76703 9.10192 6.85794 9.25933 6.91768C9.41673 6.97741 9.58459 7.00473 9.75281 6.998C10.0754 6.98509 10.3805 6.84785 10.6042 6.61503C10.8279 6.38221 10.9528 6.07187 10.9528 5.749C10.9528 5.42613 10.8279 5.11579 10.6042 4.88297C10.3805 4.65015 10.0754 4.51291 9.75281 4.5ZM14.2458 4.5C14.0776 4.49327 13.9097 4.52059 13.7523 4.58032C13.5949 4.64005 13.4512 4.73097 13.3298 4.84762C13.2084 4.96426 13.1118 5.10423 13.0458 5.25912C12.9798 5.41401 12.9458 5.58064 12.9458 5.749C12.9458 5.91736 12.9798 6.08399 13.0458 6.23888C13.1118 6.39377 13.2084 6.53374 13.3298 6.65038C13.4512 6.76703 13.5949 6.85794 13.7523 6.91768C13.9097 6.97741 14.0776 7.00473 14.2458 6.998C14.5684 6.98509 14.8735 6.84785 15.0972 6.61503C15.3209 6.38221 15.4458 6.07187 15.4458 5.749C15.4458 5.42613 15.3209 5.11579 15.0972 4.88297C14.8735 4.65015 14.5684 4.51291 14.2458 4.5Z" fill="white"/>
<path d="M19.5068 15.1541V15.154V14.25C19.5068 14.0202 19.4615 13.7926 19.3736 13.5803C19.2857 13.368 19.1568 13.1751 18.9942 13.0126C18.8317 12.8501 18.6388 12.7212 18.4265 12.6332C18.2142 12.5453 17.9866 12.5 17.7568 12.5H6.25781C5.79382 12.5 5.34882 12.6843 5.02065 13.0123C4.69254 13.3403 4.50808 13.7851 4.50781 14.249L19.5068 15.1541ZM19.5068 15.1541C19.5069 15.6226 19.4058 16.0856 19.2103 16.5113C19.0147 16.937 18.7295 17.3155 18.3741 17.6207L18.3741 17.6207M19.5068 15.1541L18.3741 17.6207M18.3741 17.6207C16.9321 18.859 14.8253 19.5 12.0038 19.5C9.18233 19.5 7.07877 18.859 5.63993 17.621L5.63968 17.6208M18.3741 17.6207L5.63968 17.6208M5.63968 17.6208C5.28475 17.3158 4.99987 16.9377 4.80452 16.5125M5.63968 17.6208L4.80452 16.5125M4.80452 16.5125C4.60919 16.0873 4.50798 15.6249 4.50781 15.157M4.80452 16.5125L4.50781 15.157M4.50781 15.157C4.50781 15.1569 4.50781 15.1569 4.50781 15.1568M4.50781 15.157L4.50781 15.1568M4.50781 15.1568L4.50781 14.2491C4.50781 14.2491 4.50781 14.2492 4.50781 14.2492L4.50781 15.1568ZM11.8155 0.585704C11.8527 0.543203 11.903 0.514603 11.9582 0.504359L12.0165 0.500322C12.0723 0.50316 12.1258 0.524666 12.1681 0.561589C12.2105 0.598567 12.2391 0.648675 12.2495 0.703723L12.2538 0.7668L12.2528 1.49833L12.2521 1.999H12.7528H16.2528C16.7169 1.999 17.1621 2.18337 17.4902 2.51156C17.8184 2.83975 18.0028 3.28487 18.0028 3.749V8.254C18.0028 8.71813 17.8184 9.16325 17.4902 9.49144C17.1621 9.81963 16.7169 10.004 16.2528 10.004H7.75281C7.28868 10.004 6.84356 9.81963 6.51538 9.49144C6.18719 9.16325 6.00281 8.71813 6.00281 8.254V3.75C6.00281 3.52012 6.0481 3.2925 6.1361 3.08012C6.22409 2.86775 6.35307 2.6748 6.51565 2.51229C6.67824 2.34978 6.87125 2.22089 7.08366 2.13299C7.29606 2.04509 7.52371 1.9999 7.75359 2H7.75396L11.254 1.999L11.7538 1.99886V1.499V0.750112C11.7538 0.750075 11.7538 0.750037 11.7538 0.75C11.7539 0.689577 11.7758 0.631212 11.8155 0.585704ZM9.77281 4.0004C9.53729 3.99097 9.3023 4.02922 9.08193 4.11285C8.86156 4.19648 8.66035 4.32376 8.49038 4.48706C8.32041 4.65036 8.18518 4.84632 8.09281 5.06317C8.00044 5.28002 7.95282 5.5133 7.95282 5.749C7.95282 5.9847 8.00044 6.21798 8.09281 6.43483C8.18518 6.65168 8.32041 6.84764 8.49038 7.01094C8.66035 7.17424 8.86156 7.30152 9.08193 7.38515C9.3023 7.46878 9.53729 7.50703 9.77281 7.4976C10.2245 7.47952 10.6516 7.28739 10.9648 6.96144C11.2779 6.63549 11.4528 6.20101 11.4528 5.749C11.4528 5.29699 11.2779 4.86251 10.9648 4.53656C10.6516 4.21061 10.2245 4.01848 9.77281 4.0004ZM14.2658 4.0004C14.0303 3.99097 13.7953 4.02922 13.5749 4.11285C13.3546 4.19648 13.1533 4.32376 12.9834 4.48706C12.8134 4.65036 12.6782 4.84632 12.5858 5.06317C12.4934 5.28002 12.4458 5.51329 12.4458 5.749C12.4458 5.98471 12.4934 6.21798 12.5858 6.43483C12.6782 6.65168 12.8134 6.84764 12.9834 7.01094C13.1533 7.17424 13.3546 7.30152 13.5749 7.38515C13.7953 7.46878 14.0303 7.50703 14.2658 7.4976C14.7175 7.47952 15.1446 7.28739 15.4578 6.96144C15.7709 6.63549 15.9458 6.20101 15.9458 5.749C15.9458 5.29699 15.7709 4.86251 15.4578 4.53656C15.1446 4.21061 14.7175 4.01848 14.2658 4.0004Z" stroke="black"/>
</g>
<defs>
<filter id="filter0_d_2023_27" x="0.0078125" y="0" width="24" height="28" filterUnits="userSpaceOnUse" color-interpolation-filters="sRGB">
<feFlood flood-opacity="0" result="BackgroundImageFix"/>
<feColorMatrix in="SourceAlpha" type="matrix" values="0 0 0 0 0 0 0 0 0 0 0 0 0 0 0 0 0 0 127 0" result="hardAlpha"/>
<feOffset dy="4"/>
<feGaussianBlur stdDeviation="2"/>
<feComposite in2="hardAlpha" operator="out"/>
<feColorMatrix type="matrix" values="0 0 0 0 0 0 0 0 0 0 0 0 0 0 0 0 0 0 0.25 0"/>
<feBlend mode="normal" in2="BackgroundImageFix" result="effect1_dropShadow_2023_27"/>
<feBlend mode="normal" in="SourceGraphic" in2="effect1_dropShadow_2023_27" result="shape"/>
</filter>
</defs>
</svg>
